<svg width="8" height="8" viewBox="0 0 8 8" fill="none" xmlns="http://www.w3.org/2000/svg">
<path d="M7.87262 3.93512C7.87351 4.05048 7.83844 4.16325 7.77229 4.25776C7.70613 4.35227 7.61217 4.42382 7.50348 4.46246L5.27316 5.27352L4.46246 7.50348C4.4225 7.61113 4.35056 7.70397 4.25629 7.76953C4.16202 7.83509 4.04994 7.87024 3.93512 7.87024C3.82029 7.87024 3.70822 7.83509 3.61395 7.76953C3.51968 7.70397 3.44773 7.61113 3.40777 7.50348L2.59707 5.27316L0.366758 4.46246C0.259109 4.4225 0.166266 4.35056 0.100704 4.25629C0.0351417 4.16202 0 4.04994 0 3.93512C0 3.82029 0.0351417 3.70822 0.100704 3.61395C0.166266 3.51968 0.259109 3.44773 0.366758 3.40777L2.59707 2.59707L3.40777 0.366758C3.44773 0.259109 3.51968 0.166266 3.61395 0.100704C3.70822 0.0351417 3.82029 0 3.93512 0C4.04994 0 4.16202 0.0351417 4.25629 0.100704C4.35056 0.166266 4.4225 0.259109 4.46246 0.366758L5.27352 2.59707L7.50348 3.40777C7.61217 3.44642 7.70613 3.51797 7.77229 3.61248C7.83844 3.70699 7.87351 3.81976 7.87262 3.93512Z" fill="url(#paint0_linear_5202_2826)"/>
<defs>
<linearGradient id="paint0_linear_5202_2826" x1="0.844574" y1="1.40719" x2="7.20257" y2="6.29404" gradientUnits="userSpaceOnUse">
<stop stop-color="#9E44BB"/>
<stop offset="0.350962" stop-color="#DC4272"/>
<stop offset="0.875" stop-color="#F95F44"/>
</linearGradient>
</defs>
</svg>
